<svg xmlns="http://www.w3.org/2000/svg" width="65" height="41.76" viewBox="13.00 16.62 65.00 41.76" role="img" aria-label="Admotion logo">
  <title>Admotion</title>
  <path d="M14.00 20.50Q14.00 16.00 17.72 18.53L38.28 32.47Q42.00 35.00 42.00 39.50L42.00 54.50Q42.00 59.00 38.28 56.47L17.72 42.53Q14.00 40.00 14.00 35.50Z" fill="#DFECFE" transform="translate(35 0)"/>
  <path d="M14.00 20.50Q14.00 16.00 17.72 18.53L38.28 32.47Q42.00 35.00 42.00 39.50L42.00 54.50Q42.00 59.00 38.28 56.47L17.72 42.53Q14.00 40.00 14.00 35.50Z" fill="#68A4FD" transform="translate(18 0)"/>
  <path d="M14.00 20.50Q14.00 16.00 17.72 18.53L38.28 32.47Q42.00 35.00 42.00 39.50L42.00 54.50Q42.00 59.00 38.28 56.47L17.72 42.53Q14.00 40.00 14.00 35.50Z" fill="#0367FC"/>
</svg>
